
<svg xmlns="http://www.w3.org/2000/svg" width="32" height="32" viewBox="0 0 32 32">
  <!-- Background -->
  <rect x="2" y="2" width="28" height="28" rx="4" fill="#9b87f5" />
  <rect x="3" y="3" width="26" height="26" rx="3" fill="#9b87f5" />
  
  <!-- Calculator screen -->
  <rect x="6" y="6" width="20" height="6" rx="1" fill="#f8f9fa" />
  
  <!-- Calculator buttons -->
  <!-- Row 1 -->
  <rect x="6" y="14" width="4" height="3" rx="1" fill="#f8f9fa" opacity="0.9" />
  <rect x="12" y="14" width="4" height="3" rx="1" fill="#f8f9fa" opacity="0.9" />
  <rect x="18" y="14" width="4" height="3" rx="1" fill="#f8f9fa" opacity="0.9" />
  <rect x="24" y="14" width="2" height="3" rx="1" fill="#f1c40f" opacity="0.9" />
  
  <!-- Row 2 -->
  <rect x="6" y="18" width="4" height="3" rx="1" fill="#f8f9fa" opacity="0.9" />
  <rect x="12" y="18" width="4" height="3" rx="1" fill="#f8f9fa" opacity="0.9" />
  <rect x="18" y="18" width="4" height="3" rx="1" fill="#f8f9fa" opacity="0.9" />
  <rect x="24" y="18" width="2" height="3" rx="1" fill="#f1c40f" opacity="0.9" />
  
  <!-- Row 3 -->
  <rect x="6" y="22" width="4" height="3" rx="1" fill="#f8f9fa" opacity="0.9" />
  <rect x="12" y="22" width="4" height="3" rx="1" fill="#f8f9fa" opacity="0.9" />
  <rect x="18" y="22" width="4" height="3" rx="1" fill="#f8f9fa" opacity="0.9" />
  <rect x="24" y="22" width="2" height="7" rx="1" fill="#f1c40f" opacity="0.9" />
  
  <!-- Row 4 -->
  <rect x="6" y="26" width="10" height="3" rx="1" fill="#f8f9fa" opacity="0.9" />
  <rect x="18" y="26" width="4" height="3" rx="1" fill="#f8f9fa" opacity="0.9" />
</svg>
